<svg width="16" height="16" viewBox="0 0 16 16" fill="none" xmlns="http://www.w3.org/2000/svg">
<g clip-path="url(#clip0_2001_1122)">
<path d="M13.3234 8.65998C13.3234 11.9907 10.9919 13.6561 8.22073 14.622C8.07562 14.6712 7.91799 14.6688 7.77441 14.6154C4.99656 13.6561 2.66504 11.9907 2.66504 8.65998V3.99693C2.66504 3.82026 2.73522 3.65082 2.86015 3.52589C2.98508 3.40096 3.15452 3.33078 3.33119 3.33078C4.66349 3.33078 6.32886 2.5314 7.48796 1.51885C7.62909 1.39828 7.80862 1.33203 7.99424 1.33203C8.17986 1.33203 8.35939 1.39828 8.50051 1.51885C9.66628 2.53806 11.325 3.33078 12.6573 3.33078C12.834 3.33078 13.0034 3.40096 13.1283 3.52589C13.2533 3.65082 13.3234 3.82026 13.3234 3.99693V8.65998Z" stroke="#FF6900" stroke-width="1.3323" stroke-linecap="round" stroke-linejoin="round"/>
</g>
<defs>
<clipPath id="clip0_2001_1122">
<rect width="15.9876" height="15.9876" fill="white"/>
</clipPath>
</defs>
</svg>
